<svg width="750" height="1120" viewBox="0 0 750 1120" fill="none" xmlns="http://www.w3.org/2000/svg">
  <defs>
    <linearGradient id="vipBg" x1="18" y1="312" x2="732" y2="312" gradientUnits="userSpaceOnUse">
      <stop stop-color="#FEF5EC"/>
      <stop offset="1" stop-color="#FDEDDB"/>
    </linearGradient>
    <linearGradient id="vipGold" x1="0" y1="0" x2="1" y2="1">
      <stop stop-color="#805540"/>
      <stop offset="1" stop-color="#C28B46"/>
    </linearGradient>
    <linearGradient id="softCard" x1="0" y1="0" x2="1" y2="1">
      <stop stop-color="#FFFFFF"/>
      <stop offset="1" stop-color="#FFF8F0"/>
    </linearGradient>
    <filter id="photoSoft" x="-20%" y="-20%" width="140%" height="140%">
      <feGaussianBlur stdDeviation="18"/>
    </filter>
  </defs>

  <rect width="750" height="1120" fill="#FFFFFF"/>

  <g id="status">
    <text x="42" y="44" font-family="PingFang SC, Arial, sans-serif" font-size="24" font-weight="600" fill="#0F131A">9:41</text>
    <rect x="674" y="25" width="38" height="18" rx="4" stroke="#0F131A" stroke-width="2"/>
    <rect x="714" y="31" width="3" height="7" rx="1.5" fill="#0F131A"/>
    <rect x="678" y="29" width="28" height="10" rx="2" fill="#0F131A"/>
  </g>

  <g id="nav">
    <path d="M35 86L22 99L35 112" stroke="#0F131A" stroke-width="4" stroke-linecap="round" stroke-linejoin="round"/>
    <rect x="62" y="61" width="312" height="46" rx="23" fill="#FFFFFF" stroke="#FFE033" stroke-width="2"/>
    <text x="82" y="91" font-family="PingFang SC, Arial, sans-serif" font-size="22" fill="#0F131A">三亚</text>
    <text x="126" y="82" font-family="PingFang SC, Arial, sans-serif" font-size="16" fill="#0F131A">01-12</text>
    <text x="126" y="102" font-family="PingFang SC, Arial, sans-serif" font-size="16" fill="#0F131A">01-13</text>
    <text x="174" y="82" font-family="PingFang SC, Arial, sans-serif" font-size="16" fill="#0F131A">1间</text>
    <text x="174" y="102" font-family="PingFang SC, Arial, sans-serif" font-size="16" fill="#0F131A">2人</text>
    <circle cx="222" cy="84" r="9" stroke="#5C5F66" stroke-width="2"/>
    <path d="M229 91L238 100" stroke="#5C5F66" stroke-width="2" stroke-linecap="round"/>
    <text x="246" y="91" font-family="PingFang SC, Arial, sans-serif" font-size="18" fill="#919499">试试“亚龙湾”</text>
    <text x="396" y="105" font-family="PingFang SC, Arial, sans-serif" font-size="20" fill="#0F131A">攻略</text>
    <text x="449" y="105" font-family="PingFang SC, Arial, sans-serif" font-size="20" fill="#0F131A">地图</text>
  </g>

  <g id="sort">
    <text x="18" y="145" font-family="PingFang SC, Arial, sans-serif" font-size="24" fill="#0F131A">推荐排序⌄</text>
    <text x="145" y="145" font-family="PingFang SC, Arial, sans-serif" font-size="24" fill="#0F131A">位置距离⌄</text>
    <text x="275" y="145" font-family="PingFang SC, Arial, sans-serif" font-size="24" fill="#0F131A">价格/星级⌄</text>
    <text x="413" y="145" font-family="PingFang SC, Arial, sans-serif" font-size="24" fill="#0F131A">筛选⌄</text>
  </g>

  <g id="filters">
    <rect x="18" y="162" width="120" height="60" rx="6" fill="#F7F8FA"/>
    <text x="42" y="200" font-family="PingFang SC, Arial, sans-serif" font-size="22" fill="#0F131A">热门优惠</text>
    <rect x="150" y="162" width="104" height="60" rx="6" fill="#F7F8FA"/>
    <text x="172" y="200" font-family="PingFang SC, Arial, sans-serif" font-size="22" fill="#0F131A">电竞酒店</text>
    <rect x="266" y="162" width="108" height="60" rx="6" fill="#F7F8FA"/>
    <text x="286" y="200" font-family="PingFang SC, Arial, sans-serif" font-size="22" fill="#0F131A">附近3km</text>
    <rect x="386" y="162" width="132" height="60" rx="6" fill="#F7F8FA"/>
    <text x="407" y="200" font-family="PingFang SC, Arial, sans-serif" font-size="22" fill="#0F131A">里程抵现金</text>
  </g>

  <g id="marketing">
    <rect x="18" y="238" width="714" height="72" rx="12" fill="#F7F8FA"/>
    <text x="42" y="283" font-family="PingFang SC, Arial, sans-serif" font-size="24" font-weight="600" fill="#0F131A">订房可享</text>
    <circle cx="160" cy="274" r="4" fill="#0F131A"/>
    <text x="176" y="283" font-family="PingFang SC, Arial, sans-serif" font-size="24" fill="#0F131A">里程10倍抵房费</text>
    <circle cx="400" cy="274" r="4" fill="#0F131A"/>
    <text x="416" y="283" font-family="PingFang SC, Arial, sans-serif" font-size="24" fill="#0F131A">优住会酒店9折起</text>
    <path d="M704 264L715 274L704 284" stroke="#0F131A" stroke-width="2.4" stroke-linecap="round" stroke-linejoin="round"/>
  </g>

  <g id="vip-module">
    <rect x="18" y="328" width="714" height="236" rx="24" fill="url(#vipBg)"/>
    <circle cx="660" cy="366" r="70" fill="#FFFFFF" opacity="0.2" filter="url(#photoSoft)"/>
    <circle cx="120" cy="524" r="64" fill="#FFFFFF" opacity="0.22" filter="url(#photoSoft)"/>

    <rect x="42" y="352" width="94" height="34" rx="4" fill="url(#vipGold)"/>
    <text x="60" y="376" font-family="PingFang SC, Arial, sans-serif" font-size="20" font-weight="600" fill="#FFF8EE">88VIP</text>

    <text x="42" y="423" font-family="PingFang SC, Arial, sans-serif" font-size="30" font-weight="600" fill="#0F131A">88VIP订酒店更优惠</text>
    <text x="42" y="461" font-family="PingFang SC, Arial, sans-serif" font-size="24" fill="#5C5F66">精选可享会员权益酒店，权益价和升级礼一键筛选</text>

    <rect x="554" y="365" width="142" height="52" rx="26" fill="#0F131A"/>
    <text x="579" y="399" font-family="PingFang SC, Arial, sans-serif" font-size="24" font-weight="600" fill="#FFFFFF">去筛选</text>
    <path d="M670 383L680 391L670 399" stroke="#FFFFFF" stroke-width="2.4" stroke-linecap="round" stroke-linejoin="round"/>

    <g id="benefit-1">
    <rect x="42" y="486" width="203" height="54" rx="12" fill="url(#softCard)"/>
      <circle cx="74" cy="513" r="18" fill="#F8E5D0"/>
      <path d="M66 514H82M74 506V522" stroke="#805540" stroke-width="3" stroke-linecap="round"/>
      <text x="103" y="508" font-family="PingFang SC, Arial, sans-serif" font-size="20" font-weight="500" fill="#0F131A">万豪白金挑战</text>
      <text x="103" y="531" font-family="PingFang SC, Arial, sans-serif" font-size="18" fill="#919499">匹配挑战资格</text>
    </g>

    <g id="benefit-2">
      <rect x="264" y="486" width="203" height="54" rx="12" fill="url(#softCard)"/>
      <circle cx="296" cy="513" r="18" fill="#F8E5D0"/>
      <path d="M289 517L296 505L303 517H289Z" stroke="#805540" stroke-width="3" stroke-linejoin="round"/>
      <text x="325" y="508" font-family="PingFang SC, Arial, sans-serif" font-size="20" font-weight="500" fill="#0F131A">希尔顿升金</text>
      <text x="325" y="531" font-family="PingFang SC, Arial, sans-serif" font-size="18" fill="#919499">一住解锁金卡</text>
    </g>

    <g id="benefit-3">
      <rect x="486" y="486" width="210" height="54" rx="12" fill="url(#softCard)"/>
      <circle cx="518" cy="513" r="18" fill="#F8E5D0"/>
      <path d="M509 508H527V522H509V508Z" stroke="#805540" stroke-width="3" stroke-linejoin="round"/>
      <path d="M513 508C513 503 523 503 523 508" stroke="#805540" stroke-width="3" stroke-linecap="round"/>
      <text x="547" y="508" font-family="PingFang SC, Arial, sans-serif" font-size="20" font-weight="500" fill="#0F131A">闪购早餐券</text>
      <text x="547" y="531" font-family="PingFang SC, Arial, sans-serif" font-size="18" fill="#919499">限时领酒店券</text>
    </g>
  </g>

  <g id="hotel-card">
    <rect x="18" y="588" width="714" height="248" rx="0" fill="#FFFFFF"/>
    <rect x="18" y="588" width="222" height="222" rx="12" fill="#D8E9F1"/>
    <path d="M18 740C70 706 113 723 150 690C185 660 210 661 240 638V810H18V740Z" fill="#7DB2D0"/>
    <path d="M18 770C85 735 148 750 240 700V810H18V770Z" fill="#316D91"/>
    <text x="34" y="616" font-family="PingFang SC, Arial, sans-serif" font-size="20" fill="#FFFFFF">万豪</text>
    <rect x="18" y="776" width="222" height="34" rx="0" fill="#805540"/>
    <text x="44" y="800" font-family="PingFang SC, Arial, sans-serif" font-size="22" font-weight="600" fill="#FFFFFF">品牌直营 双重积分</text>

    <text x="258" y="626" font-family="PingFang SC, Arial, sans-serif" font-size="30" font-weight="600" fill="#0F131A">杭州西溪湿地公园纳德润泽园</text>
    <text x="258" y="666" font-family="PingFang SC, Arial, sans-serif" font-size="24" fill="#6666FF">4.8  温暖海滩，全家暖冬之旅</text>
    <text x="258" y="704" font-family="PingFang SC, Arial, sans-serif" font-size="24" fill="#5C5F66">近亚龙湾国家旅游度假区</text>
    <rect x="258" y="724" width="166" height="28" rx="4" fill="#FFFFFF" stroke="#805540" stroke-opacity="0.5"/>
    <text x="264" y="745" font-family="PingFang SC, Arial, sans-serif" font-size="20" fill="#805540">每晚额外加赠2000积分</text>
    <rect x="432" y="724" width="56" height="28" rx="4" fill="#FFFFFF" stroke="#805540" stroke-opacity="0.5"/>
    <text x="438" y="745" font-family="PingFang SC, Arial, sans-serif" font-size="20" fill="#805540">返现金</text>

    <rect x="258" y="764" width="300" height="28" rx="4" fill="#6E5A4F"/>
    <text x="270" y="785" font-family="PingFang SC, Arial, sans-serif" font-size="20" fill="#FEF5EC">F4 × 万豪白金卡会员权益</text>
    <rect x="480" y="764" width="180" height="28" rx="4" fill="#FFFFFF" stroke="#BFaa9F"/>
    <text x="494" y="785" font-family="PingFang SC, Arial, sans-serif" font-size="20" fill="#805540">会员价·延迟退房</text>

    <text x="258" y="820" font-family="PingFang SC, Arial, sans-serif" font-size="20" fill="#919499">5000+预订</text>
    <text x="530" y="820" font-family="PingFang SC, Arial, sans-serif" font-size="20" fill="#919499">2间2晚均价</text>
    <text x="618" y="820" font-family="Fliggy Sans, Arial, sans-serif" font-size="42" font-weight="700" fill="#FF5533">¥1060</text>
  </g>

  <g id="notes">
    <rect x="18" y="872" width="714" height="120" rx="24" fill="#F7F8FA"/>
    <text x="42" y="918" font-family="PingFang SC, Arial, sans-serif" font-size="24" font-weight="600" fill="#0F131A">方案锚点</text>
    <text x="42" y="955" font-family="PingFang SC, Arial, sans-serif" font-size="22" fill="#5C5F66">暖金会员底色、三项横向权益、右侧筛选 CTA、列表页轻量密度</text>
    <text x="42" y="985" font-family="PingFang SC, Arial, sans-serif" font-size="22" fill="#919499">最终 Figma 会用可编辑 frame/text/vector 还原，不粘贴整张图</text>
  </g>
</svg>
